<?xml version="1.0" encoding="UTF-8"?>
<svg xmlns="http://www.w3.org/2000/svg" viewBox="0 0 512 512">
  <defs>
    <linearGradient id="nova" x1="72" y1="72" x2="440" y2="440" gradientUnits="userSpaceOnUse">
      <stop offset="0" stop-color="#7C5CFF"/>
      <stop offset="0.5" stop-color="#4B8DFF"/>
      <stop offset="1" stop-color="#19D3C5"/>
    </linearGradient>
    <filter id="glow" x="-30%" y="-30%" width="160%" height="160%">
      <feGaussianBlur stdDeviation="12" result="blur"/>
      <feMerge>
        <feMergeNode in="blur"/>
        <feMergeNode in="SourceGraphic"/>
      </feMerge>
    </filter>
  </defs>

  <rect width="512" height="512" rx="112" fill="#101116"/>
  <path d="M256 58C146.65 58 58 146.65 58 256s88.65 198 198 198 198-88.65 198-198S365.35 58 256 58Z"
        fill="none" stroke="url(#nova)" stroke-width="20" opacity=".25"/>

  <g filter="url(#glow)">
    <path d="M126 350 211 156c7-16 30-16 37 0l28 64 43-95c8-17 32-16 39 1l28 69"
          fill="none" stroke="url(#nova)" stroke-width="34" stroke-linecap="round" stroke-linejoin="round"/>
    <path d="M178 350h156"
          fill="none" stroke="url(#nova)" stroke-width="34" stroke-linecap="round"/>
  </g>

  <circle cx="386" cy="126" r="12" fill="#19D3C5"/>
  <circle cx="417" cy="156" r="7" fill="#7C5CFF"/>
</svg>
